<?xml version="1.0" standalone="no"?>
<!DOCTYPE svg PUBLIC "-//W3C//DTD SVG 20010904//EN"
 "http://www.w3.org/TR/2001/REC-SVG-20010904/DTD/svg10.dtd">
<svg version="1.0" xmlns="http://www.w3.org/2000/svg"
 width="288.000000pt" height="288.000000pt" viewBox="0 0 288.000000 288.000000"
 preserveAspectRatio="xMidYMid meet">

<g transform="translate(0.000000,288.000000) scale(0.100000,-0.100000)"
fill="#000000" stroke="none">
<path d="M1995 2190 c-27 -11 -75 -24 -107 -30 -77 -15 -139 -59 -211 -151
l-62 -78 -106 0 c-103 -1 -305 17 -496 43 l-92 12 16 -27 c9 -15 54 -73 99
-128 144 -173 260 -251 374 -251 28 0 50 -5 50 -10 0 -6 -22 -59 -48 -118 -78
-174 -163 -292 -284 -393 -33 -27 -56 -49 -53 -49 16 0 190 72 265 110 283
142 470 348 549 604 21 67 28 111 11 71 -8 -21 -8 -21 -25 31 -3 9 -11 14 -20
10 -20 -7 -19 4 3 21 9 8 11 11 3 7 -10 -5 -11 -1 -6 17 7 21 6 22 -7 11 -9
-7 -21 -26 -28 -43 -7 -16 -15 -28 -17 -25 -5 4 89 184 123 235 12 18 48 60
79 92 32 33 53 59 49 58 -5 0 -31 -9 -59 -19z m-121 -395 c3 -8 1 -15 -4 -15
-6 0 -10 7 -10 15 0 8 2 15 4 15 2 0 6 -7 10 -15z m8 -57 c-8 -8 -9 -4 -5 13
4 13 8 18 11 10 2 -7 -1 -18 -6 -23z"/>
<path d="M1324 905 c-4 -9 -2 -21 4 -27 15 -15 44 -1 40 19 -4 23 -36 29 -44
8z"/>
<path d="M921 828 c-5 -13 -25 -58 -45 -102 -20 -43 -36 -80 -36 -82 0 -2 11
-4 24 -4 13 0 30 10 38 22 21 31 96 31 116 -1 8 -11 25 -21 38 -21 22 0 22 2
-24 105 -43 98 -48 105 -74 105 -20 0 -31 -6 -37 -22z m54 -68 c20 -39 20 -40
-15 -40 -16 0 -30 2 -30 4 0 8 22 66 26 66 2 0 10 -13 19 -30z"/>
<path d="M1082 803 c11 -27 31 -73 43 -103 20 -48 27 -55 51 -55 27 0 31 7 71
103 l42 102 -28 0 c-23 0 -29 -6 -45 -49 -32 -91 -39 -92 -71 -17 -25 59 -31
66 -56 66 l-28 0 21 -47z"/>
<path d="M1320 745 l0 -105 25 0 25 0 0 105 0 105 -25 0 -25 0 0 -105z"/>
<path d="M1446 799 l37 -50 -30 -42 c-47 -67 -47 -67 -16 -67 21 0 34 9 51 36
l24 36 25 -36 c20 -27 33 -36 56 -36 22 0 27 3 20 13 -5 6 -24 31 -42 54 l-32
42 37 50 36 51 -25 0 c-17 0 -34 -11 -50 -31 l-24 -31 -22 31 c-16 23 -30 31
-52 31 l-29 0 36 -51z"/>
<path d="M1675 754 c-22 -54 -41 -101 -43 -106 -2 -4 8 -8 23 -8 18 0 29 6 32
20 5 19 17 23 68 23 35 0 43 -4 48 -23 3 -14 14 -20 31 -20 14 0 26 2 26 3 0
2 -19 48 -43 103 -40 91 -46 99 -73 102 -28 3 -30 -1 -69 -94z m95 -21 c0 -7
-11 -13 -25 -13 -28 0 -30 8 -13 45 l12 26 13 -23 c7 -13 12 -29 13 -35z"/>
<path d="M1895 745 l0 -105 28 0 c23 0 27 4 27 30 0 23 4 30 20 30 11 0 29
-13 42 -30 15 -21 30 -30 51 -30 l29 0 -25 33 c-24 32 -24 33 -6 56 25 30 24
76 -1 101 -16 16 -33 20 -92 20 l-73 0 0 -105z m132 49 c10 -26 -11 -49 -46
-52 -30 -3 -31 -2 -31 32 0 34 2 36 35 36 24 0 38 -5 42 -16z"/>
</g>
</svg>
